<?xml version="1.0" encoding="UTF-8"?>
<svg id="_レイヤー_2" data-name="レイヤー 2" xmlns="http://www.w3.org/2000/svg" viewBox="0 0 97.25 98.67">
  <defs>
    <style>
      .cls-1 {
        fill: #e34f26;
      }

      .cls-1, .cls-2, .cls-3, .cls-4, .cls-5 {
        stroke-width: 0px;
      }

      .cls-2 {
        fill: #fff;
      }

      .cls-3 {
        fill: #1c88c7;
      }

      .cls-4 {
        fill: #ef652a;
      }

      .cls-5 {
        fill: #1b73ba;
      }
    </style>
  </defs>
  <g id="_レイヤー_1-2" data-name="レイヤー 1">
    <g>
      <g>
        <path class="cls-5" d="m51.42,92.76l-4.19-51.19,50.03.1-4.43,51.09-20.39,5.91-21.01-5.91Z"/>
        <path class="cls-3" d="m72.43,93.72v-47.28s20.6.07,20.6.07l-3.67,42.3-16.93,4.91Z"/>
        <path class="cls-2" d="m87.91,52.49h-31.69s.86,6.18.86,6.18h15.04s-14.8,6.35-14.8,6.35l.86,5.97h21.8s-.79,8.34-.79,8.34l-7.38,1.44-6.69-1.72-.52-4.74h-6.15s.82,9.85.82,9.85l13.18,3.67,12.64-4.02,1.61-19.26h-13.36s14.56-6.04,14.56-6.04v-6.04Z"/>
      </g>
      <g>
        <path class="cls-1" d="m4.19,51.17L0,0l50,.1-4.43,51.06-20.38,5.9-21-5.9Z"/>
        <path class="cls-4" d="m25.19,52.13V4.87l20.59.07-3.67,42.28-16.92,4.91Z"/>
        <path class="cls-2" d="m40.12,16.68l.58-6.25H9.03l1.75,19.15h21.86l-.86,8.17-7,1.89-7.1-2.06-.38-4.87h-6.28l.86,9.95,12.9,3.6,13.01-3.6,1.75-19.42h-22.96l-.65-6.55h24.19Z"/>
      </g>
    </g>
  </g>
</svg>