<?xml version="1.0" encoding="UTF-8"?>
<svg id="_レイヤー_2" data-name="レイヤー 2" xmlns="http://www.w3.org/2000/svg" viewBox="0 0 74.49 5.88">
  <defs>
    <style>
      .cls-1 {
        fill: #0f77b7;
      }

      .cls-1, .cls-2, .cls-3 {
        stroke-width: 0px;
      }

      .cls-2 {
        fill: #005d32;
      }

      .cls-4 {
        opacity: .75;
      }

      .cls-3 {
        fill: #1377b9;
      }

      .cls-5 {
        fill: none;
        stroke: #1377b9;
        stroke-miterlimit: 10;
        stroke-width: .25px;
      }
    </style>
  </defs>
  <g id="_レイヤー_1-2" data-name="レイヤー 1">
    <g>
      <path class="cls-1" d="m4.69,3.93c.07-.15-.07-.25-.19-.37-.09-.08-.11-.22-.15-.33-.07-.17-.13-.34-.1-.52.03-.18.13-.34.21-.5.09-.16.16-.33.27-.47.11-.14.22-.29.32-.44.1-.15.24-.29.3-.46.06-.18.02-.36-.02-.54-.02-.08-.04-.15-.12-.12-.04.01-.09.01-.11.05-.1.21-.2.43-.36.61-.11.13-.24.24-.37.35-.13.11-.29.18-.41.3-.12.11-.25.24-.33.39-.08.14-.15.3-.18.46-.04.16-.01.33-.02.49-.02.24-.02.48.07.7.08.21.21.29.37.36.16.07.32.16.5.21.12.03.26-.03.31-.15Z"/>
      <path class="cls-1" d="m8.22,4.67c-.06-.03-.13-.02-.2,0-.15.05-.3.07-.46.08-.16.01-.31.03-.47,0-.22-.03-.42-.16-.64-.18-.14-.01-.28.04-.42.03-.16,0-.32-.05-.48-.08-.16-.03-.31-.06-.47-.11-.21-.07-.43-.22-.64-.26-.26-.05-.14.19-.04.33.07.1.12.24.22.34.1.1.22.16.34.22.14.08.3.14.46.18.13.03.26.05.39.08s.27.03.4.05c.18.03.36.04.55.03.17-.01.32-.05.48-.1.13-.04.26-.08.38-.13.13-.04.27-.03.4-.08.09-.03.18-.09.24-.17.06-.07.04-.2-.05-.25Z"/>
      <path class="cls-3" d="m5.56.84c.12-.07.26-.13.4-.15.14-.02.29-.02.43-.03.2,0,.4.03.58.13.15.09.27.25.44.3.21.06.45-.08.64.03.14.08.2.24.32.34.11.09.26.07.4.09.07-.2.02-.38-.08-.57-.1-.19-.2-.37-.34-.52-.07-.07-.16-.12-.24-.17-.14-.09-.29-.11-.46-.11-.16,0-.33.02-.49-.01-.15-.03-.3-.12-.45-.15-.13-.03-.29-.03-.45,0-.15.04-.29.1-.41.18-.14.09-.24.19-.3.32-.05.1-.07.23.01.31Z"/>
      <path class="cls-1" d="m9.79,2.66c-.04-.19-.14-.36-.21-.54-.07-.18-.08-.38-.14-.57-.02-.06-.17-.05-.17.02-.01.15,0,.3-.04.44-.03.15-.06.29-.12.42-.06.13-.14.26-.25.37-.13.14-.3.25-.35.44-.06.18.03.36.07.54.04.2.04.43-.04.61-.04.09-.3.32-.18.4.11.07.46-.18.54-.24.17-.13.33-.3.4-.5.06-.16.07-.33.1-.5.04-.17.1-.32.21-.44.06-.07.1-.15.13-.24.02-.07.06-.13.05-.2Z"/>
      <path class="cls-1" d="m5.15,3.9c.1.12.27.22.31.25.05.03.11.05.17.07.13.04.27.02.41,0,.12,0,.24,0,.36.03.16.04.31.08.47.14.16.06.31.08.47.06.16-.02.31-.09.45-.18.04-.03.08-.05.11-.09.04-.05.06-.11.07-.17.02-.1.04-.2.04-.3,0-.02,0-.04-.03-.05-.01-.01-.02-.04-.03-.04-.16-.01-.3.14-.44.22-.17.09-.37.09-.56.06-.19-.03-.36-.11-.54-.16-.12-.04-.25-.08-.37-.09-.1,0-.2,0-.3,0-.17,0-.34-.03-.5-.07-.03,0-.07-.04-.1-.03-.15.05-.1.22.01.35Z"/>
      <path class="cls-1" d="m6.03,1.39c.04-.06.07-.12.09-.19.02-.07.03-.16-.02-.21-.11-.1-.25.02-.37.15-.11.13-.22.29-.28.34-.11.1-.25.2-.37.3-.12.1-.25.2-.31.35-.06.16-.05.34,0,.51.04.16.15.31.22.46.03.07.04.15.1.2.06.05.16.06.22.02.07-.05.09-.17.09-.26,0-.13,0-.26.01-.39,0-.05.01-.11.05-.15.04-.04.11-.04.15-.07.15-.1.19-.32.22-.5.04-.2.1-.39.21-.56Z"/>
      <path class="cls-1" d="m8.25,3.37c.09-.13.16-.27.22-.42.06-.14.08-.3.1-.46,0-.03.02-.06.01-.09,0-.04-.04-.07-.06-.11-.08-.13-.16-.27-.24-.4-.11-.17-.22-.36-.39-.45-.09-.05-.21-.05-.28,0-.05.04-.09.12-.09.18,0,.08.05.08.11.14.11.11.14.27.18.41.05.17.08.34.06.52-.02.11-.05.22-.08.33-.03.11-.05.24,0,.34s.19.19.3.15c.07-.02.13-.09.18-.16Z"/>
      <path class="cls-1" d="m7.34,1.79c-.1-.1-.21-.21-.31-.31-.08-.08-.17-.16-.29-.13-.06.02-.11.06-.16.1-.13.1-.27.19-.38.31-.03.03-.07.07-.08.11-.03.07,0,.15.06.2.01.01.03.03.05.03.05.02.11,0,.16-.02.12-.05.24-.08.36-.09.13,0,.25,0,.37.03.06.02.12.03.18.03.06,0,.12-.04.13-.1.01-.06-.04-.12-.08-.16Z"/>
      <path class="cls-1" d="m5.85,2.83c0,.08.02.16.08.23.06.06.13.11.2.15.19.11.4.2.61.26.02,0,.04.02.06,0,.01,0,.02-.02.03-.03.05-.07.05-.17.01-.24-.02-.04-.06-.08-.09-.11-.06-.07-.13-.13-.16-.22-.03-.09-.04-.18-.07-.27-.04-.12-.16-.29-.31-.27-.05,0-.06.05-.09.09-.05.06-.11.1-.17.16-.06.07-.1.15-.1.24Z"/>
      <path class="cls-1" d="m7.4,2.42c-.02-.08-.09-.14-.16-.17-.13-.05-.29-.04-.37.09-.03.05-.05.12-.06.18,0,.03-.02.06-.01.09,0,.03.02.06.04.09.05.07.1.14.13.22.02.04.03.09.06.13.06.07.17.1.25.07.09-.03.14-.12.14-.22,0-.1-.05-.19-.05-.29,0-.07.04-.14.03-.21Z"/>
    </g>
    <path class="cls-2" d="m1.28,3.63c-.28.12-.49.37-.65.63-.04.07-.08.14-.14.2-.15.17-.4.26-.49.48.57.2,1.15.36,1.73.49.05.01.11.02.16.02.07,0,.13-.02.19-.04.5-.16.89-.63.95-1.15,0-.02,0-.04,0-.06-.02-.06-.11-.07-.18-.06-.2.03-.4.06-.6.09,0-.05.05-.08.1-.1.14-.05.28-.1.42-.13.07-.02.17-.06.15-.14-.01-.05-.07-.07-.13-.08-.26-.05-.52-.09-.77-.18-.12-.04-.25-.06-.38-.06-.05,0-.35.03-.36.08Z"/>
    <path class="cls-2" d="m10.46,4.01c-.02.12-.04.25,0,.37.03.12.12.22.21.31.13.11.28.2.44.26.21.07.44.09.65.16.43.13.81.43,1.25.51.07-.09,0-.22-.04-.33-.1-.28,0-.6-.08-.89-.06-.2-.21-.37-.37-.51-.38-.34-.84-.59-1.33-.73-.06-.02-.12-.03-.16.02-.02.03-.03.06-.02.1.03.29.37.46.45.74-.15.05-.28-.09-.39-.2-.08-.08-.27-.28-.4-.26-.16.02-.18.32-.2.44Z"/>
    <g>
      <path class="cls-1" d="m19.87,3.93c.07-.15-.07-.25-.19-.37-.09-.08-.11-.22-.15-.33-.07-.17-.13-.34-.1-.52.03-.18.13-.34.21-.5.09-.16.16-.33.27-.47.11-.14.22-.29.32-.44.1-.15.24-.29.3-.46.06-.18.02-.36-.02-.54-.02-.08-.04-.15-.12-.12-.04.01-.09.01-.11.05-.1.21-.2.43-.36.61-.11.13-.24.24-.37.35-.13.11-.29.18-.41.3-.12.11-.25.24-.33.39-.08.14-.15.3-.18.46-.04.16-.01.33-.02.49-.02.24-.02.48.07.7.08.21.21.29.37.36.16.07.32.16.5.21.12.03.26-.03.31-.15Z"/>
      <path class="cls-1" d="m23.4,4.67c-.06-.03-.13-.02-.2,0-.15.05-.3.07-.46.08-.16.01-.31.03-.47,0-.22-.03-.42-.16-.64-.18-.14-.01-.28.04-.42.03-.16,0-.32-.05-.48-.08-.16-.03-.31-.06-.47-.11-.21-.07-.43-.22-.64-.26-.26-.05-.14.19-.04.33.07.1.12.24.22.34.1.1.22.16.34.22.14.08.3.14.46.18.13.03.26.05.39.08s.27.03.4.05c.18.03.36.04.55.03.17-.01.32-.05.48-.1.13-.04.26-.08.38-.13.13-.04.27-.03.4-.08.09-.03.18-.09.24-.17.06-.07.04-.2-.05-.25Z"/>
      <path class="cls-3" d="m20.74.84c.12-.07.26-.13.4-.15.14-.02.29-.02.43-.03.2,0,.4.03.58.13.15.09.27.25.44.3.21.06.45-.08.64.03.14.08.2.24.32.34.11.09.26.07.4.09.07-.2.02-.38-.08-.57-.1-.19-.2-.37-.34-.52-.07-.07-.16-.12-.24-.17-.14-.09-.29-.11-.46-.11-.16,0-.33.02-.49-.01-.15-.03-.3-.12-.45-.15-.13-.03-.29-.03-.45,0-.15.04-.29.1-.41.18-.14.09-.24.19-.3.32-.05.1-.07.23.01.31Z"/>
      <path class="cls-1" d="m24.97,2.66c-.04-.19-.14-.36-.21-.54-.07-.18-.08-.38-.14-.57-.02-.06-.17-.05-.17.02-.01.15,0,.3-.04.44-.03.15-.06.29-.12.42-.06.13-.14.26-.25.37-.13.14-.3.25-.35.44-.06.18.03.36.07.54.04.2.04.43-.04.61-.04.09-.3.32-.18.4.11.07.46-.18.54-.24.17-.13.33-.3.4-.5.06-.16.07-.33.1-.5.04-.17.1-.32.21-.44.06-.07.1-.15.13-.24.02-.07.06-.13.05-.2Z"/>
      <path class="cls-1" d="m20.33,3.9c.1.12.27.22.31.25.05.03.11.05.17.07.13.04.27.02.41,0,.12,0,.24,0,.36.03.16.04.31.08.47.14.16.06.31.08.47.06.16-.02.31-.09.45-.18.04-.03.08-.05.11-.09.04-.05.06-.11.07-.17.02-.1.04-.2.04-.3,0-.02,0-.04-.03-.05-.01-.01-.02-.04-.03-.04-.16-.01-.3.14-.44.22-.17.09-.37.09-.56.06-.19-.03-.36-.11-.54-.16-.12-.04-.25-.08-.37-.09-.1,0-.2,0-.3,0-.17,0-.34-.03-.5-.07-.03,0-.07-.04-.1-.03-.15.05-.1.22.01.35Z"/>
      <path class="cls-1" d="m21.21,1.39c.04-.06.07-.12.09-.19.02-.07.03-.16-.02-.21-.11-.1-.25.02-.37.15-.11.13-.22.29-.28.34-.11.1-.25.2-.37.3-.12.1-.25.2-.31.35-.06.16-.05.34,0,.51.04.16.15.31.22.46.03.07.04.15.1.2.06.05.16.06.22.02.07-.05.09-.17.09-.26,0-.13,0-.26.01-.39,0-.05.01-.11.05-.15.04-.04.11-.04.15-.07.15-.1.19-.32.22-.5.04-.2.1-.39.21-.56Z"/>
      <path class="cls-1" d="m23.43,3.37c.09-.13.16-.27.22-.42.06-.14.08-.3.1-.46,0-.03.02-.06.01-.09,0-.04-.04-.07-.06-.11-.08-.13-.16-.27-.24-.4-.11-.17-.22-.36-.39-.45-.09-.05-.21-.05-.28,0-.05.04-.09.12-.09.18,0,.08.05.08.11.14.11.11.14.27.18.41.05.17.08.34.06.52-.02.11-.05.22-.08.33-.03.11-.05.24,0,.34s.19.19.3.15c.07-.02.13-.09.18-.16Z"/>
      <path class="cls-1" d="m22.52,1.79c-.1-.1-.21-.21-.31-.31-.08-.08-.17-.16-.29-.13-.06.02-.11.06-.16.1-.13.1-.27.19-.38.31-.03.03-.07.07-.08.11-.03.07,0,.15.06.2.01.01.03.03.05.03.05.02.11,0,.16-.02.12-.05.24-.08.36-.09.13,0,.25,0,.37.03.06.02.12.03.18.03.06,0,.12-.04.13-.1.01-.06-.04-.12-.08-.16Z"/>
      <path class="cls-1" d="m21.03,2.83c0,.08.02.16.08.23.06.06.13.11.2.15.19.11.4.2.61.26.02,0,.04.02.06,0,.01,0,.02-.02.03-.03.05-.07.05-.17.01-.24-.02-.04-.06-.08-.09-.11-.06-.07-.13-.13-.16-.22-.03-.09-.04-.18-.07-.27-.04-.12-.16-.29-.31-.27-.05,0-.06.05-.09.09-.05.06-.11.1-.17.16-.06.07-.1.15-.1.24Z"/>
      <path class="cls-1" d="m22.58,2.42c-.02-.08-.09-.14-.16-.17-.13-.05-.29-.04-.37.09-.03.05-.05.12-.06.18,0,.03-.02.06-.01.09,0,.03.02.06.04.09.05.07.1.14.13.22.02.04.03.09.06.13.06.07.17.1.25.07.09-.03.14-.12.14-.22,0-.1-.05-.19-.05-.29,0-.07.04-.14.03-.21Z"/>
    </g>
    <path class="cls-2" d="m16.45,3.63c-.28.12-.49.37-.65.63-.04.07-.08.14-.14.2-.15.17-.4.26-.49.48.57.2,1.15.36,1.73.49.05.01.11.02.16.02.07,0,.13-.02.19-.04.5-.16.89-.63.95-1.15,0-.02,0-.04,0-.06-.02-.06-.11-.07-.18-.06-.2.03-.4.06-.6.09,0-.05.05-.08.1-.1.14-.05.28-.1.42-.13.07-.02.17-.06.15-.14-.01-.05-.07-.07-.13-.08-.26-.05-.52-.09-.77-.18-.12-.04-.25-.06-.38-.06-.05,0-.35.03-.36.08Z"/>
    <path class="cls-2" d="m25.64,4.01c-.02.12-.04.25,0,.37.03.12.12.22.21.31.13.11.28.2.44.26.21.07.44.09.65.16.43.13.81.43,1.25.51.07-.09,0-.22-.04-.33-.1-.28,0-.6-.08-.89-.06-.2-.21-.37-.37-.51-.38-.34-.84-.59-1.33-.73-.06-.02-.12-.03-.16.02-.02.03-.03.06-.02.1.03.29.37.46.45.74-.15.05-.28-.09-.39-.2-.08-.08-.27-.28-.4-.26-.16.02-.18.32-.2.44Z"/>
    <g>
      <path class="cls-1" d="m35.05,3.93c.07-.15-.07-.25-.19-.37-.09-.08-.11-.22-.15-.33-.07-.17-.13-.34-.1-.52.03-.18.13-.34.21-.5.09-.16.16-.33.27-.47.11-.14.22-.29.32-.44.1-.15.24-.29.3-.46.06-.18.02-.36-.02-.54-.02-.08-.04-.15-.12-.12-.04.01-.09.01-.11.05-.1.21-.2.43-.36.61-.11.13-.24.24-.37.35-.13.11-.29.18-.41.3-.12.11-.25.24-.33.39-.08.14-.15.3-.18.46-.04.16-.01.33-.02.49-.02.24-.02.48.07.7.08.21.21.29.37.36.16.07.32.16.5.21.12.03.26-.03.31-.15Z"/>
      <path class="cls-1" d="m38.58,4.67c-.06-.03-.13-.02-.2,0-.15.05-.3.07-.46.08-.16.01-.31.03-.47,0-.22-.03-.42-.16-.64-.18-.14-.01-.28.04-.42.03-.16,0-.32-.05-.48-.08-.16-.03-.31-.06-.47-.11-.21-.07-.43-.22-.64-.26-.26-.05-.14.19-.04.33.07.1.12.24.22.34.1.1.22.16.34.22.14.08.3.14.46.18.13.03.26.05.39.08s.27.03.4.05c.18.03.36.04.55.03.17-.01.32-.05.48-.1.13-.04.26-.08.38-.13.13-.04.27-.03.4-.08.09-.03.18-.09.24-.17.06-.07.04-.2-.05-.25Z"/>
      <path class="cls-3" d="m35.92.84c.12-.07.26-.13.4-.15.14-.02.29-.02.43-.03.2,0,.4.03.58.13.15.09.27.25.44.3.21.06.45-.08.64.03.14.08.2.24.32.34.11.09.26.07.4.09.07-.2.02-.38-.08-.57-.1-.19-.2-.37-.34-.52-.07-.07-.16-.12-.24-.17-.14-.09-.29-.11-.46-.11-.16,0-.33.02-.49-.01-.15-.03-.3-.12-.45-.15-.13-.03-.29-.03-.45,0-.15.04-.29.1-.41.18-.14.09-.24.19-.3.32-.05.1-.07.23.01.31Z"/>
      <path class="cls-1" d="m40.15,2.66c-.04-.19-.14-.36-.21-.54-.07-.18-.08-.38-.14-.57-.02-.06-.17-.05-.17.02-.01.15,0,.3-.04.44-.03.15-.06.29-.12.42-.06.13-.14.26-.25.37-.13.14-.3.25-.35.44-.06.18.03.36.07.54.04.2.04.43-.04.61-.04.09-.3.32-.18.4.11.07.46-.18.54-.24.17-.13.33-.3.4-.5.06-.16.07-.33.1-.5.04-.17.1-.32.21-.44.06-.07.1-.15.13-.24.02-.07.06-.13.05-.2Z"/>
      <path class="cls-1" d="m35.51,3.9c.1.12.27.22.31.25.05.03.11.05.17.07.13.04.27.02.41,0,.12,0,.24,0,.36.03.16.04.31.08.47.14.16.06.31.08.47.06.16-.02.31-.09.45-.18.04-.03.08-.05.11-.09.04-.05.06-.11.07-.17.02-.1.04-.2.04-.3,0-.02,0-.04-.03-.05-.01-.01-.02-.04-.03-.04-.16-.01-.3.14-.44.22-.17.09-.37.09-.56.06-.19-.03-.36-.11-.54-.16-.12-.04-.25-.08-.37-.09-.1,0-.2,0-.3,0-.17,0-.34-.03-.5-.07-.03,0-.07-.04-.1-.03-.15.05-.1.22.01.35Z"/>
      <path class="cls-1" d="m36.39,1.39c.04-.06.07-.12.09-.19.02-.07.03-.16-.02-.21-.11-.1-.25.02-.37.15-.11.13-.22.29-.28.34-.11.1-.25.2-.37.3-.12.1-.25.2-.31.35-.06.16-.05.34,0,.51.04.16.15.31.22.46.03.07.04.15.1.2.06.05.16.06.22.02.07-.05.09-.17.09-.26,0-.13,0-.26.01-.39,0-.05.01-.11.05-.15.04-.04.11-.04.15-.07.15-.1.19-.32.22-.5.04-.2.1-.39.21-.56Z"/>
      <path class="cls-1" d="m38.61,3.37c.09-.13.16-.27.22-.42.06-.14.08-.3.1-.46,0-.03.02-.06.01-.09,0-.04-.04-.07-.06-.11-.08-.13-.16-.27-.24-.4-.11-.17-.22-.36-.39-.45-.09-.05-.21-.05-.28,0-.05.04-.09.12-.09.18,0,.08.05.08.11.14.11.11.14.27.18.41.05.17.08.34.06.52-.02.11-.05.22-.08.33-.03.11-.05.24,0,.34s.19.19.3.15c.07-.02.13-.09.18-.16Z"/>
      <path class="cls-1" d="m37.7,1.79c-.1-.1-.21-.21-.31-.31-.08-.08-.17-.16-.29-.13-.06.02-.11.06-.16.1-.13.1-.27.19-.38.31-.03.03-.07.07-.08.11-.03.07,0,.15.06.2.01.01.03.03.05.03.05.02.11,0,.16-.02.12-.05.24-.08.36-.09.13,0,.25,0,.37.03.06.02.12.03.18.03.06,0,.12-.04.13-.1.01-.06-.04-.12-.08-.16Z"/>
      <path class="cls-1" d="m36.21,2.83c0,.08.02.16.08.23.06.06.13.11.2.15.19.11.4.2.61.26.02,0,.04.02.06,0,.01,0,.02-.02.03-.03.05-.07.05-.17.01-.24-.02-.04-.06-.08-.09-.11-.06-.07-.13-.13-.16-.22-.03-.09-.04-.18-.07-.27-.04-.12-.16-.29-.31-.27-.05,0-.06.05-.09.09-.05.06-.11.1-.17.16-.06.07-.1.15-.1.24Z"/>
      <path class="cls-1" d="m37.76,2.42c-.02-.08-.09-.14-.16-.17-.13-.05-.29-.04-.37.09-.03.05-.05.12-.06.18,0,.03-.02.06-.01.09,0,.03.02.06.04.09.05.07.1.14.13.22.02.04.03.09.06.13.06.07.17.1.25.07.09-.03.14-.12.14-.22,0-.1-.05-.19-.05-.29,0-.07.04-.14.03-.21Z"/>
    </g>
    <path class="cls-2" d="m31.63,3.63c-.28.12-.49.37-.65.63-.04.07-.08.14-.14.2-.15.17-.4.26-.49.48.57.2,1.15.36,1.73.49.05.01.11.02.16.02.07,0,.13-.02.19-.04.5-.16.89-.63.95-1.15,0-.02,0-.04,0-.06-.02-.06-.11-.07-.18-.06-.2.03-.4.06-.6.09,0-.05.05-.08.1-.1.14-.05.28-.1.42-.13.07-.02.17-.06.15-.14-.01-.05-.07-.07-.13-.08-.26-.05-.52-.09-.77-.18-.12-.04-.25-.06-.38-.06-.05,0-.35.03-.36.08Z"/>
    <path class="cls-2" d="m40.82,4.01c-.02.12-.04.25,0,.37.03.12.12.22.21.31.13.11.28.2.44.26.21.07.44.09.65.16.43.13.81.43,1.25.51.07-.09,0-.22-.04-.33-.1-.28,0-.6-.08-.89-.06-.2-.21-.37-.37-.51-.38-.34-.84-.59-1.33-.73-.06-.02-.12-.03-.16.02-.02.03-.03.06-.02.1.03.29.37.46.45.74-.15.05-.28-.09-.39-.2-.08-.08-.27-.28-.4-.26-.16.02-.18.32-.2.44Z"/>
    <g>
      <path class="cls-1" d="m50.23,3.93c.07-.15-.07-.25-.19-.37-.09-.08-.11-.22-.15-.33-.07-.17-.13-.34-.1-.52.03-.18.13-.34.21-.5.09-.16.16-.33.27-.47.11-.14.22-.29.32-.44.1-.15.24-.29.3-.46.06-.18.02-.36-.02-.54-.02-.08-.04-.15-.12-.12-.04.01-.09.01-.11.05-.1.21-.2.43-.36.61-.11.13-.24.24-.37.35-.13.11-.29.18-.41.3-.12.11-.25.24-.33.39-.08.14-.15.3-.18.46-.04.16-.01.33-.02.49-.02.24-.02.48.07.7.08.21.21.29.37.36.16.07.32.16.5.21.12.03.26-.03.31-.15Z"/>
      <path class="cls-1" d="m53.76,4.67c-.06-.03-.13-.02-.2,0-.15.05-.3.07-.46.08-.16.01-.31.03-.47,0-.22-.03-.42-.16-.64-.18-.14-.01-.28.04-.42.03-.16,0-.32-.05-.48-.08-.16-.03-.31-.06-.47-.11-.21-.07-.43-.22-.64-.26-.26-.05-.14.19-.04.33.07.1.12.24.22.34.1.1.22.16.34.22.14.08.3.14.46.18.13.03.26.05.39.08s.27.03.4.05c.18.03.36.04.55.03.17-.01.32-.05.48-.1.13-.04.26-.08.38-.13.13-.04.27-.03.4-.08.09-.03.18-.09.24-.17.06-.07.04-.2-.05-.25Z"/>
      <path class="cls-3" d="m51.1.84c.12-.07.26-.13.4-.15.14-.02.29-.02.43-.03.2,0,.4.03.58.13.15.09.27.25.44.3.21.06.45-.08.64.03.14.08.2.24.32.34.11.09.26.07.4.09.07-.2.02-.38-.08-.57-.1-.19-.2-.37-.34-.52-.07-.07-.16-.12-.24-.17-.14-.09-.29-.11-.46-.11-.16,0-.33.02-.49-.01-.15-.03-.3-.12-.45-.15-.13-.03-.29-.03-.45,0-.15.04-.29.1-.41.18-.14.09-.24.19-.3.32-.05.1-.07.23.01.31Z"/>
      <path class="cls-1" d="m55.33,2.66c-.04-.19-.14-.36-.21-.54-.07-.18-.08-.38-.14-.57-.02-.06-.17-.05-.17.02-.01.15,0,.3-.04.44-.03.15-.06.29-.12.42-.06.13-.14.26-.25.37-.13.14-.3.25-.35.44-.06.18.03.36.07.54.04.2.04.43-.04.61-.04.09-.3.32-.18.4.11.07.46-.18.54-.24.17-.13.33-.3.4-.5.06-.16.07-.33.1-.5.04-.17.1-.32.21-.44.06-.07.1-.15.13-.24.02-.07.06-.13.05-.2Z"/>
      <path class="cls-1" d="m50.69,3.9c.1.12.27.22.31.25.05.03.11.05.17.07.13.04.27.02.41,0,.12,0,.24,0,.36.03.16.04.31.08.47.14.16.06.31.08.47.06.16-.02.31-.09.45-.18.04-.03.08-.05.11-.09.04-.05.06-.11.07-.17.02-.1.04-.2.04-.3,0-.02,0-.04-.03-.05-.01-.01-.02-.04-.03-.04-.16-.01-.3.14-.44.22-.17.09-.37.09-.56.06-.19-.03-.36-.11-.54-.16-.12-.04-.25-.08-.37-.09-.1,0-.2,0-.3,0-.17,0-.34-.03-.5-.07-.03,0-.07-.04-.1-.03-.15.05-.1.22.01.35Z"/>
      <path class="cls-1" d="m51.57,1.39c.04-.06.07-.12.09-.19.02-.07.03-.16-.02-.21-.11-.1-.25.02-.37.15-.11.13-.22.29-.28.34-.11.1-.25.2-.37.3-.12.1-.25.2-.31.35-.06.16-.05.34,0,.51.04.16.15.31.22.46.03.07.04.15.1.2.06.05.16.06.22.02.07-.05.09-.17.09-.26,0-.13,0-.26.01-.39,0-.05.01-.11.05-.15.04-.04.11-.04.15-.07.15-.1.19-.32.22-.5.04-.2.1-.39.21-.56Z"/>
      <path class="cls-1" d="m53.79,3.37c.09-.13.16-.27.22-.42.06-.14.08-.3.1-.46,0-.03.02-.06.01-.09,0-.04-.04-.07-.06-.11-.08-.13-.16-.27-.24-.4-.11-.17-.22-.36-.39-.45-.09-.05-.21-.05-.28,0-.05.04-.09.12-.09.18,0,.08.05.08.11.14.11.11.14.27.18.41.05.17.08.34.06.52-.02.11-.05.22-.08.33-.03.11-.05.24,0,.34s.19.19.3.15c.07-.02.13-.09.18-.16Z"/>
      <path class="cls-1" d="m52.88,1.79c-.1-.1-.21-.21-.31-.31-.08-.08-.17-.16-.29-.13-.06.02-.11.06-.16.1-.13.1-.27.19-.38.31-.03.03-.07.07-.08.11-.03.07,0,.15.06.2.01.01.03.03.05.03.05.02.11,0,.16-.02.12-.05.24-.08.36-.09.13,0,.25,0,.37.03.06.02.12.03.18.03.06,0,.12-.04.13-.1.01-.06-.04-.12-.08-.16Z"/>
      <path class="cls-1" d="m51.39,2.83c0,.08.02.16.08.23.06.06.13.11.2.15.19.11.4.2.61.26.02,0,.04.02.06,0,.01,0,.02-.02.03-.03.05-.07.05-.17.01-.24-.02-.04-.06-.08-.09-.11-.06-.07-.13-.13-.16-.22-.03-.09-.04-.18-.07-.27-.04-.12-.16-.29-.31-.27-.05,0-.06.05-.09.09-.05.06-.11.1-.17.16-.06.07-.1.15-.1.24Z"/>
      <path class="cls-1" d="m52.94,2.42c-.02-.08-.09-.14-.16-.17-.13-.05-.29-.04-.37.09-.03.05-.05.12-.06.18,0,.03-.02.06-.01.09,0,.03.02.06.04.09.05.07.1.14.13.22.02.04.03.09.06.13.06.07.17.1.25.07.09-.03.14-.12.14-.22,0-.1-.05-.19-.05-.29,0-.07.04-.14.03-.21Z"/>
    </g>
    <path class="cls-2" d="m46.81,3.63c-.28.12-.49.37-.65.63-.04.07-.08.14-.14.2-.15.17-.4.26-.49.48.57.2,1.15.36,1.73.49.05.01.11.02.16.02.07,0,.13-.02.19-.04.5-.16.89-.63.95-1.15,0-.02,0-.04,0-.06-.02-.06-.11-.07-.18-.06-.2.03-.4.06-.6.09,0-.05.05-.08.1-.1.14-.05.28-.1.42-.13.07-.02.17-.06.15-.14-.01-.05-.07-.07-.13-.08-.26-.05-.52-.09-.77-.18-.12-.04-.25-.06-.38-.06-.05,0-.35.03-.36.08Z"/>
    <path class="cls-2" d="m56,4.01c-.02.12-.04.25,0,.37.03.12.12.22.21.31.13.11.28.2.44.26.21.07.44.09.65.16.43.13.81.43,1.25.51.07-.09,0-.22-.04-.33-.1-.28,0-.6-.08-.89-.06-.2-.21-.37-.37-.51-.38-.34-.84-.59-1.33-.73-.06-.02-.12-.03-.16.02-.02.03-.03.06-.02.1.03.29.37.46.45.74-.15.05-.28-.09-.39-.2-.08-.08-.27-.28-.4-.26-.16.02-.18.32-.2.44Z"/>
    <g class="cls-4">
      <path class="cls-5" d="m66.14,4.19c.07-.15-.07-.25-.19-.37-.09-.08-.11-.22-.15-.33-.07-.17-.13-.34-.1-.52.03-.18.13-.34.21-.5.09-.16.16-.33.27-.47.11-.14.22-.29.32-.44.1-.15.24-.29.3-.46.06-.18.02-.36-.02-.54-.02-.08-.04-.15-.12-.12-.04.01-.09.01-.11.05-.1.21-.2.43-.36.61-.11.13-.24.24-.37.35-.13.11-.29.18-.41.3-.12.11-.25.24-.33.39-.08.14-.15.3-.18.46-.04.16-.01.33-.02.49-.02.24-.02.48.07.7.08.21.21.29.37.36.16.07.32.16.5.21.12.03.26-.03.31-.15Z"/>
      <path class="cls-5" d="m69.67,4.93c-.06-.03-.13-.02-.2,0-.15.05-.3.07-.46.08-.16.01-.31.03-.47,0-.22-.03-.42-.16-.64-.18-.14-.01-.28.04-.42.03-.16,0-.32-.05-.48-.08-.16-.03-.31-.06-.47-.11-.21-.07-.43-.22-.64-.26-.26-.05-.14.19-.04.33.07.1.12.24.22.34.1.1.22.16.34.22.14.08.3.14.46.18.13.03.26.05.39.08s.27.03.4.05c.18.03.36.04.55.03.17-.01.32-.05.48-.1.13-.04.26-.08.38-.13.13-.04.27-.03.4-.08.09-.03.18-.09.24-.17.06-.07.04-.2-.05-.25Z"/>
      <path class="cls-5" d="m67.01,1.1c.12-.07.26-.13.4-.15.14-.02.29-.02.43-.03.2,0,.4.03.58.13.15.09.27.25.44.3.21.06.45-.08.64.03.14.08.2.24.32.34.11.09.26.07.4.09.07-.2.02-.38-.08-.57-.1-.19-.2-.37-.34-.52-.07-.07-.16-.12-.24-.17-.14-.09-.29-.11-.46-.11-.16,0-.33.02-.49-.01-.15-.03-.3-.12-.45-.15-.13-.03-.29-.03-.45,0-.15.04-.29.1-.41.18-.14.09-.24.19-.3.32-.05.1-.07.23.01.31Z"/>
      <path class="cls-5" d="m71.24,2.91c-.04-.19-.14-.36-.21-.54-.07-.18-.08-.38-.14-.57-.02-.06-.17-.05-.17.02-.01.15,0,.3-.04.44-.03.15-.06.29-.12.42-.06.13-.14.26-.25.37-.13.14-.3.25-.35.44-.06.18.03.36.07.54.04.2.04.43-.04.61-.04.09-.3.32-.18.4.11.07.46-.18.54-.24.17-.13.33-.3.4-.5.06-.16.07-.33.1-.5.04-.17.1-.32.21-.44.06-.07.1-.15.13-.24.02-.07.06-.13.05-.2Z"/>
      <path class="cls-5" d="m66.6,4.16c.1.12.27.22.31.25.05.03.11.05.17.07.13.04.27-.71.41-.72.12,0,.24.73.36.76.16.04.31.08.47.14.16.06.31.08.47.06.16-.02.31-.09.45-.18.04-.03.08-.05.11-.09.04-.05.06-.11.07-.17.02-.1.04-.2.04-.3,0-.02,0-.04-.03-.05-.01-.01-.02-.04-.03-.04-.16-.01-.3.14-.44.22-.17.09-.37.09-.56.06-.19-.03-.36-.11-.54-.16-.12-.04-.25-.08-.37-.09-.1,0-.2,0-.3,0-.17,0-.34-.03-.5-.07-.03,0-.07-.04-.1-.03-.15.05-.1.22.01.35Z"/>
      <path class="cls-5" d="m67.48,1.64c.04-.06.07-.12.09-.19.02-.07.03-.16-.02-.21-.11-.1-.25.02-.37.15-.11.13-.22.29-.28.34-.11.1-.25.2-.37.3-.12.1-.25.2-.31.35-.06.16-.05.34,0,.51.04.16.15.31.22.46.03.07.04.15.1.2.06.05.16.06.22.02.07-.05.09-.17.09-.26,0-.13,0-.26.01-.39,0-.05.01-.11.05-.15.04-.04.11-.04.15-.07.15-.1.19-.32.22-.5.04-.2.1-.39.21-.56Z"/>
      <path class="cls-5" d="m69.7,3.63c.09-.13.16-.27.22-.42.06-.14.08-.3.1-.46,0-.03.02-.06.01-.09,0-.04-.04-.07-.06-.11-.08-.13-.16-.27-.24-.4-.11-.17-.22-.36-.39-.45-.09-.05-.21-.05-.28,0-.05.04-.09.12-.09.18,0,.08.05.08.11.14.11.11.14.27.18.41.05.17.08.34.06.52-.02.11-.05.22-.08.33-.03.11-.05.24,0,.34s.19.19.3.15c.07-.02.13-.09.18-.16Z"/>
      <path class="cls-5" d="m68.79,2.05c-.1-.1-.21-.21-.31-.31-.08-.08-.17-.16-.29-.13-.06.02-.11.06-.16.1-.13.1-.27.19-.38.31-.03.03-.07.07-.08.11-.03.07,0,.15.06.2.01.01.03.03.05.03.05.02.11,0,.16-.02.12-.05.24-.08.36-.09.13,0,.25,0,.37.03.06.02.12.03.18.03.06,0,.12-.04.13-.1.01-.06-.04-.12-.08-.16Z"/>
      <path class="cls-5" d="m67.3,3.09c0,.08.02.16.08.23.06.06.13.11.2.15.19.11.4.2.61.26.02,0,.04.02.06,0,.01,0,.02-.02.03-.03.05-.07.05-.17.01-.24-.02-.04-.06-.08-.09-.11-.06-.07-.13-.13-.16-.22-.03-.09-.04-.18-.07-.27-.04-.12-.16-.29-.31-.27-.05,0-.06.05-.09.09-.05.06-.11.1-.17.16-.06.07-.1.15-.1.24Z"/>
      <path class="cls-5" d="m68.85,2.67c-.02-.08-.09-.14-.16-.17-.13-.05-.29-.04-.37.09-.03.05-.05.12-.06.18,0,.03-.02.06-.01.09,0,.03.02.06.04.09.05.07.1.14.13.22.02.04.03.09.06.13.06.07.17.1.25.07.09-.03.14-.12.14-.22,0-.1-.05-.19-.05-.29,0-.07.04-.14.03-.21Z"/>
    </g>
    <path class="cls-2" d="m62.72,3.89c-.28.12-.49.37-.65.63-.04.07-.08.14-.14.2-.15.17-.4.26-.49.48.57.2,1.15.36,1.73.49.05.01.11.02.16.02.07,0,.13-.02.19-.04.5-.16.89-.63.95-1.15,0-.02,0-.04,0-.06-.02-.06-.11-.07-.18-.06-.2.03-.4.06-.6.09,0-.05.05-.08.1-.1.14-.05.28-.1.42-.13.07-.02.17-.06.15-.14-.01-.05-.07-.07-.13-.08-.26-.05-.52-.09-.77-.18-.12-.04-.25-.06-.38-.06-.05,0-.35.03-.36.08Z"/>
    <path class="cls-2" d="m71.91,4.26c-.02.12-.04.25,0,.37.03.12.12.22.21.31.13.11.28.2.44.26.21.07.44.09.65.16.43.13.81.43,1.25.51.07-.09,0-.22-.04-.33-.1-.28,0-.6-.08-.89-.06-.2-.21-.37-.37-.51-.38-.34-.84-.59-1.33-.73-.06-.02-.12-.03-.16.02-.02.03-.03.06-.02.1.03.29.37.46.45.74-.15.05-.28-.09-.39-.2-.08-.08-.27-.28-.4-.26-.16.02-.18.32-.2.44Z"/>
  </g>
</svg>