<?xml version="1.0" encoding="UTF-8"?>
<svg id="_レイヤー_2" data-name="レイヤー 2" xmlns="http://www.w3.org/2000/svg" viewBox="0 0 393.37 71.94">
  <defs>
    <style>
      .cls-1 {
        stroke-width: 0px;
      }
    </style>
  </defs>
  <g id="_レイヤー_1-2" data-name="レイヤー 1">
    <g>
      <path class="cls-1" d="m24.11,67.33c-5.29,2.74-9.51,3.82-14.21,3.82-5.19,0-7.55-.78-9.9-1.96.88-4.41,4.7-8.72,12.06-8.72,4.8,0,7.74.59,10.68,1.18,4.41-4.02,9.41-13.43,15.98-24.21-.98-1.57-1.37-4.41,3.72-5.98,7.55-11.66,17.15-20.97,28.32-25.38l-.2-.29c-3.82-.69-9.6-.98-15.88-.98-15.09,0-37.93,3.92-37.34,20.29.2,6.66,4.7,9.9,11.56,11.27l-.88,1.27c-12.74.78-20.68-5.29-20.88-13.82C6.66,7.74,28.03,0,54.39,0c12.15,0,25.09,1.47,33.81,4.51,9.02,3.23,14.7,8.43,13.62,16.07-.98,8.92-10.78,15.58-26.66,16.07l-.2.39c12.74,2.25,17.05,10.09,16.07,16.96-1.67,10.19-13.13,17.94-34.11,17.94-13.43,0-25.87-2.35-32.83-4.61Zm53.22-15.98c.49-5-1.67-10.98-13.62-12.64-3.33-.49-6.17-.78-10.09-.78-5.68,9.02-16.66,21.17-25.19,25.48,4.8,1.27,14.8,3.04,24.11,3.04,11.66,0,24.01-4.21,24.8-15.09Zm11.56-31.95c.98-5.98-2.55-10.68-10.39-12.54-7.06,2.65-13.33,12.05-22.84,27.54,3.53.2,6.08.2,9.11.1,15.29-.59,23.13-6.57,24.11-15.09Z"/>
      <path class="cls-1" d="m119.46,39.1c-4.8,6.76-9.9,15.68-9.9,21.07,0,3.14,1.96,4.8,5.68,4.8,3.43,0,6.57-1.47,9.51-3.82l-.88,2.74c-3.14,3.33-8.13,6.66-15.68,6.66-5.19,0-11.27-2.16-11.27-10.09,0-7.25,3.82-15.68,12.45-27.44,6.08-8.33,12.64-15.78,19.6-22.15h11.47l.69,1.27c-5.78,5.98-13.72,15.68-21.66,26.95Z"/>
      <path class="cls-1" d="m157,65.76c-.39-1.08-.59-2.45-.49-3.92h-.1c-4.51,4.12-11.66,8.62-20.58,8.62-7.94,0-11.17-3.72-11.17-9.11,0-4.41,2.16-8.92,5.39-14.02,3.43-5.29,8.23-10.58,11.07-12.74h10.58l.78,1.27c-3.14,3.53-6.76,7.94-10.49,14.21-2.74,4.51-4.41,8.23-4.41,11.07,0,2.65,1.57,4.31,5.1,4.31,3.82,0,9.21-2.16,14.02-6.66.69-3.23,2.55-7.35,4.51-10.58,3.63-5.98,8.23-11.37,10.98-13.62h10.88l.78,1.27c-2.65,3.14-5.78,7.06-9.21,12.35-3.82,5.78-6.27,10.19-6.27,13.03,0,2.45,1.37,3.63,4.41,3.63,2.84,0,5.88-1.57,8.72-3.82l-.88,2.74c-2.55,2.55-7.64,6.66-15,6.66-4.21,0-7.35-1.57-8.62-4.7Z"/>
      <path class="cls-1" d="m240.2,35.58l3.43,1.86c-1.47,2.06-5.78,8.43-8.13,11.47-5,6.57-8.92,10.58-14.02,14.31-5.59,4.21-13.33,7.64-22.74,7.64-10.29,0-16.66-3.72-16.66-12.84,0-7.15,4.31-13.92,10.49-18.52,5.68-4.12,12.84-6.47,20.29-6.47,6.96,0,12.35,2.45,12.45,8.33,0,5.78-5.49,9.9-11.86,11.86-5.88,2.06-12.54,2.45-17.84,2.16-.2.69-.29,1.86-.29,2.55,0,5.49,3.14,8.04,8.92,8.04,5.39,0,11.47-2.84,15.48-5.88,4.31-3.33,8.53-7.64,12.25-12.64,2.45-3.33,6.08-8.62,8.23-11.86Zm-44,17.35c3.92.29,9.31-.2,13.72-1.76,5.1-1.76,8.92-5,9.11-8.92.1-2.94-1.67-4.7-5.19-4.7s-7.15,1.57-10.19,4.21c-3.63,2.94-6.27,7.25-7.45,11.17Z"/>
      <path class="cls-1" d="m237.25,35.58c.69-.98,1.27-1.86,2.35-3.23,2.25-3.04,3.92-4.02,9.11-3.72,3.04.1,2.35,1.76-.2,4.61-.59.69-1.27,1.47-1.96,2.16,1.67,0,13.62-.2,15.78-.2,1.67,0,3.04,1.67,2.94,3.04-1.27,2.74-5.68,8.04-8.53,12.15-2.94,4.31-5.29,8.23-5.29,10.88,0,2.06,1.27,3.63,4.41,3.63,3.33,0,6.27-1.67,9.11-3.82l-.88,2.74c-2.55,2.55-7.94,6.66-14.9,6.66-5.49,0-9.9-2.16-9.9-7.64,0-4.31,2.35-8.62,5.39-13.04,2.74-3.92,6.37-7.45,7.35-9.31.2-.88,0-1.47-1.57-1.47h-10.58c-3.23,0-4.31-.98-2.65-3.43Z"/>
      <path class="cls-1" d="m265.77,57.43c0-6.57,3.72-13.03,9.9-17.64,5.19-4.02,12.15-6.76,19.8-6.76,10.19,0,15.09,5.39,15.09,12.35,0,5.59-2.65,11.37-6.66,15.88-5.39,5.78-12.94,9.6-21.86,9.6-9.8,0-16.27-4.51-16.27-13.43Zm32.05-20.19c-4.31,0-9.6,3.23-13.43,8.23-3.23,4.21-5.59,9.41-5.59,13.92s2.74,7.15,6.86,7.15c4.41,0,9.02-3.14,12.45-7.45,3.63-4.51,6.27-10.39,6.27-15.09,0-4.21-2.25-6.76-6.57-6.76Z"/>
      <path class="cls-1" d="m326.73,70.66c-9.6,0-15.19-2.55-18.13-5.88l.39-3.92c2.06,2.94,7.35,5.39,13.04,5.39,7.15,0,9.6-2.35,9.8-5.1.29-2.84-2.74-4.02-8.53-6.86-4.61-2.25-7.45-5.19-6.86-10.68.78-6.86,8.33-10.49,18.03-10.49,7.84,0,13.92,2.16,16.96,4.8l-.49,3.92c-2.25-2.25-6.76-4.31-11.56-4.31-5.59,0-8.62,1.67-9.02,4.7-.39,3.33,2.74,4.8,7.25,7.06,5.88,2.84,8.33,6.27,7.94,10.58-.59,6.27-7.55,10.78-18.82,10.78Z"/>
      <path class="cls-1" d="m366.61,70.86c-10.19,0-16.47-3.82-16.47-12.84,0-7.15,4.31-13.92,10.49-18.52,5.68-4.12,12.84-6.47,20.29-6.47,6.96,0,12.35,2.45,12.45,8.33,0,5.78-5.69,10-11.86,11.86-5.88,2.06-12.54,2.45-17.84,2.16-.2.69-.29,1.96-.29,2.55,0,5.59,3.33,8.04,8.92,8.04,6.08,0,11.56-2.45,16.07-6.08l-.69,3.23c-4.31,3.92-11.56,7.74-21.07,7.74Zm-2.35-17.94c3.92.29,9.31-.2,13.72-1.76,5.1-1.76,8.92-5,9.11-8.92.1-2.94-1.67-4.7-5.19-4.7s-7.15,1.57-10.19,4.21c-3.63,2.94-6.27,7.25-7.45,11.17Z"/>
    </g>
  </g>
</svg>